<?xml version="1.0" standalone="no"?>
<!DOCTYPE svg PUBLIC "-//W3C//DTD SVG 20010904//EN"
 "http://www.w3.org/TR/2001/REC-SVG-20010904/DTD/svg10.dtd">
<svg version="1.0" xmlns="http://www.w3.org/2000/svg"
 width="640.000000pt" height="640.000000pt" viewBox="0 0 640.000000 640.000000"
 preserveAspectRatio="xMidYMid meet">

<g transform="translate(0.000000,640.000000) scale(0.100000,-0.100000)"
fill="#000000" stroke="none">
<path d="M2840 6379 c-445 -58 -725 -140 -1073 -315 -308 -155 -543 -329 -828
-613 -214 -215 -349 -380 -474 -581 -245 -394 -394 -840 -446 -1330 -18 -168
-15 -555 6 -725 89 -748 397 -1366 946 -1900 247 -240 489 -419 753 -556 405
-210 762 -309 1252 -346 210 -16 238 -16 447 0 802 61 1430 342 2001 897 505
490 815 1072 925 1735 33 199 44 340 44 555 0 902 -316 1652 -964 2286 -348
339 -714 573 -1144 729 -210 76 -428 126 -700 160 -132 16 -630 19 -745 4z
m870 -3179 l0 -1810 -415 0 -415 0 -2 1210 -3 1211 -168 -116 c-147 -102 -170
-115 -184 -103 -87 70 -458 401 -458 407 0 5 151 168 335 362 184 195 398 420
475 501 l140 148 348 0 347 0 0 -1810z"/>
</g>
</svg>